<mxfile host="Electron" modified="2023-09-21T09:15:38.658Z" agent="Mozilla/5.0 (Windows NT 10.0; Win64; x64) AppleWebKit/537.36 (KHTML, like Gecko) draw.io/21.6.5 Chrome/114.0.5735.243 Electron/25.3.1 Safari/537.36" etag="mlPfJJ6sS-etPiN195d3" version="21.6.5" type="device">
  <diagram name="Page-1" id="PGo3vEJHwBamMPNbCgqc">
    <mxGraphModel dx="1863" dy="606" grid="1" gridSize="10" guides="1" tooltips="1" connect="1" arrows="1" fold="1" page="1" pageScale="1" pageWidth="827" pageHeight="1169" math="0" shadow="0">
      <root>
        <mxCell id="0" />
        <mxCell id="1" parent="0" />
        <mxCell id="wqAJ-05neOodzUHFtLEN-1" value="Network Switchover = Active-Backup bonding mode" style="text;html=1;strokeColor=none;fillColor=none;align=center;verticalAlign=middle;whiteSpace=wrap;rounded=0;" parent="1" vertex="1">
          <mxGeometry x="6" y="245" width="240" height="30" as="geometry" />
        </mxCell>
        <mxCell id="wqAJ-05neOodzUHFtLEN-2" value="LACP Switchover = LACP bonding mode&lt;br&gt;Multiple LAG on switch side" style="text;html=1;strokeColor=none;fillColor=none;align=center;verticalAlign=middle;whiteSpace=wrap;rounded=0;" parent="1" vertex="1">
          <mxGeometry x="65" y="470" width="240" height="30" as="geometry" />
        </mxCell>
        <mxCell id="wqAJ-05neOodzUHFtLEN-3" value="LACP Switchover and Aggregation = LACP bonding mode&lt;br&gt;Single LAG on switch side" style="text;html=1;strokeColor=none;fillColor=none;align=center;verticalAlign=middle;whiteSpace=wrap;rounded=0;" parent="1" vertex="1">
          <mxGeometry x="5" y="665" width="315" height="30" as="geometry" />
        </mxCell>
        <mxCell id="wqAJ-05neOodzUHFtLEN-4" value="Switch" style="rounded=1;whiteSpace=wrap;html=1;fillColor=#e1d5e7;strokeColor=#9673a6;" parent="1" vertex="1">
          <mxGeometry x="398" y="212.5" width="94" height="107.5" as="geometry" />
        </mxCell>
        <mxCell id="wqAJ-05neOodzUHFtLEN-5" value="Deskvue" style="rounded=1;whiteSpace=wrap;html=1;fillColor=#dae8fc;strokeColor=#6c8ebf;" parent="1" vertex="1">
          <mxGeometry x="619" y="209" width="121" height="110" as="geometry" />
        </mxCell>
        <mxCell id="wqAJ-05neOodzUHFtLEN-7" value="" style="endArrow=none;html=1;rounded=0;entryX=0;entryY=0.5;entryDx=0;entryDy=0;exitX=1;exitY=0.25;exitDx=0;exitDy=0;" parent="1" source="wqAJ-05neOodzUHFtLEN-4" target="q6s2j3DDuQdiJ-hi_PL6-1" edge="1">
          <mxGeometry width="50" height="50" relative="1" as="geometry">
            <mxPoint x="405" y="370" as="sourcePoint" />
            <mxPoint x="585" y="330" as="targetPoint" />
          </mxGeometry>
        </mxCell>
        <mxCell id="wqAJ-05neOodzUHFtLEN-8" value="bond0" style="text;html=1;strokeColor=none;fillColor=none;align=center;verticalAlign=middle;whiteSpace=wrap;rounded=0;" parent="1" vertex="1">
          <mxGeometry x="571" y="249" width="60" height="30" as="geometry" />
        </mxCell>
        <mxCell id="wqAJ-05neOodzUHFtLEN-9" value="Active-Backup&lt;br&gt;Bonding mode" style="text;html=1;strokeColor=none;fillColor=none;align=center;verticalAlign=middle;whiteSpace=wrap;rounded=0;" parent="1" vertex="1">
          <mxGeometry x="500" y="199" width="110" height="30" as="geometry" />
        </mxCell>
        <mxCell id="wqAJ-05neOodzUHFtLEN-11" value="Switch" style="rounded=1;whiteSpace=wrap;html=1;" parent="1" vertex="1">
          <mxGeometry x="415" y="450" width="120" height="60" as="geometry" />
        </mxCell>
        <mxCell id="wqAJ-05neOodzUHFtLEN-12" value="Deskvue" style="rounded=1;whiteSpace=wrap;html=1;" parent="1" vertex="1">
          <mxGeometry x="655" y="450" width="120" height="60" as="geometry" />
        </mxCell>
        <mxCell id="wqAJ-05neOodzUHFtLEN-13" value="" style="endArrow=none;html=1;rounded=0;exitX=1;exitY=0.25;exitDx=0;exitDy=0;entryX=0;entryY=0.25;entryDx=0;entryDy=0;" parent="1" source="wqAJ-05neOodzUHFtLEN-17" target="wqAJ-05neOodzUHFtLEN-12" edge="1">
          <mxGeometry width="50" height="50" relative="1" as="geometry">
            <mxPoint x="645" y="540" as="sourcePoint" />
            <mxPoint x="695" y="490" as="targetPoint" />
          </mxGeometry>
        </mxCell>
        <mxCell id="wqAJ-05neOodzUHFtLEN-14" value="" style="endArrow=none;html=1;rounded=0;exitX=1;exitY=0.25;exitDx=0;exitDy=0;entryX=0;entryY=0.25;entryDx=0;entryDy=0;" parent="1" edge="1">
          <mxGeometry width="50" height="50" relative="1" as="geometry">
            <mxPoint x="535" y="500" as="sourcePoint" />
            <mxPoint x="655" y="500" as="targetPoint" />
          </mxGeometry>
        </mxCell>
        <mxCell id="wqAJ-05neOodzUHFtLEN-15" value="bond0" style="text;html=1;strokeColor=none;fillColor=none;align=center;verticalAlign=middle;whiteSpace=wrap;rounded=0;" parent="1" vertex="1">
          <mxGeometry x="635" y="465" width="60" height="30" as="geometry" />
        </mxCell>
        <mxCell id="wqAJ-05neOodzUHFtLEN-16" value="LACP with multiple LAG" style="text;html=1;strokeColor=none;fillColor=none;align=center;verticalAlign=middle;whiteSpace=wrap;rounded=0;" parent="1" vertex="1">
          <mxGeometry x="565" y="390" width="80" height="30" as="geometry" />
        </mxCell>
        <mxCell id="wqAJ-05neOodzUHFtLEN-18" value="" style="endArrow=none;html=1;rounded=0;exitX=1;exitY=0.25;exitDx=0;exitDy=0;entryX=0;entryY=0.25;entryDx=0;entryDy=0;" parent="1" source="wqAJ-05neOodzUHFtLEN-11" target="wqAJ-05neOodzUHFtLEN-17" edge="1">
          <mxGeometry width="50" height="50" relative="1" as="geometry">
            <mxPoint x="535" y="465" as="sourcePoint" />
            <mxPoint x="655" y="465" as="targetPoint" />
          </mxGeometry>
        </mxCell>
        <mxCell id="wqAJ-05neOodzUHFtLEN-17" value="" style="ellipse;whiteSpace=wrap;html=1;" parent="1" vertex="1">
          <mxGeometry x="585" y="460" width="10" height="15" as="geometry" />
        </mxCell>
        <mxCell id="wqAJ-05neOodzUHFtLEN-19" value="" style="ellipse;whiteSpace=wrap;html=1;" parent="1" vertex="1">
          <mxGeometry x="585" y="490" width="10" height="15" as="geometry" />
        </mxCell>
        <mxCell id="wqAJ-05neOodzUHFtLEN-20" value="LAG1" style="text;html=1;strokeColor=none;fillColor=none;align=center;verticalAlign=middle;whiteSpace=wrap;rounded=0;" parent="1" vertex="1">
          <mxGeometry x="525" y="440" width="60" height="30" as="geometry" />
        </mxCell>
        <mxCell id="wqAJ-05neOodzUHFtLEN-21" value="LAG2" style="text;html=1;strokeColor=none;fillColor=none;align=center;verticalAlign=middle;whiteSpace=wrap;rounded=0;" parent="1" vertex="1">
          <mxGeometry x="525" y="495" width="60" height="30" as="geometry" />
        </mxCell>
        <mxCell id="wqAJ-05neOodzUHFtLEN-22" value="Host" style="rounded=1;whiteSpace=wrap;html=1;" parent="1" vertex="1">
          <mxGeometry x="325" y="465" width="40" height="30" as="geometry" />
        </mxCell>
        <mxCell id="wqAJ-05neOodzUHFtLEN-23" value="" style="endArrow=classic;html=1;rounded=0;" parent="1" source="wqAJ-05neOodzUHFtLEN-22" edge="1">
          <mxGeometry width="50" height="50" relative="1" as="geometry">
            <mxPoint x="365" y="530" as="sourcePoint" />
            <mxPoint x="415" y="480" as="targetPoint" />
          </mxGeometry>
        </mxCell>
        <mxCell id="wqAJ-05neOodzUHFtLEN-24" value="Switch" style="rounded=1;whiteSpace=wrap;html=1;fillColor=#e1d5e7;strokeColor=#9673a6;" parent="1" vertex="1">
          <mxGeometry x="425" y="640" width="120" height="60" as="geometry" />
        </mxCell>
        <mxCell id="wqAJ-05neOodzUHFtLEN-25" value="Deskvue" style="rounded=1;whiteSpace=wrap;html=1;fillColor=#dae8fc;strokeColor=#6c8ebf;" parent="1" vertex="1">
          <mxGeometry x="665" y="640" width="120" height="60" as="geometry" />
        </mxCell>
        <mxCell id="wqAJ-05neOodzUHFtLEN-27" value="" style="endArrow=none;html=1;rounded=0;exitX=1;exitY=0.25;exitDx=0;exitDy=0;entryX=0;entryY=0.25;entryDx=0;entryDy=0;" parent="1" edge="1">
          <mxGeometry width="50" height="50" relative="1" as="geometry">
            <mxPoint x="545" y="690" as="sourcePoint" />
            <mxPoint x="665" y="690" as="targetPoint" />
          </mxGeometry>
        </mxCell>
        <mxCell id="wqAJ-05neOodzUHFtLEN-28" value="bond0" style="text;html=1;strokeColor=none;fillColor=none;align=center;verticalAlign=middle;whiteSpace=wrap;rounded=0;" parent="1" vertex="1">
          <mxGeometry x="624" y="655" width="60" height="30" as="geometry" />
        </mxCell>
        <mxCell id="wqAJ-05neOodzUHFtLEN-29" value="LACP with single LAG" style="text;html=1;strokeColor=none;fillColor=none;align=center;verticalAlign=middle;whiteSpace=wrap;rounded=0;" parent="1" vertex="1">
          <mxGeometry x="575" y="585" width="80" height="30" as="geometry" />
        </mxCell>
        <mxCell id="wqAJ-05neOodzUHFtLEN-30" value="" style="endArrow=none;html=1;rounded=0;exitX=1;exitY=0.25;exitDx=0;exitDy=0;entryX=0.397;entryY=-0.027;entryDx=0;entryDy=0;entryPerimeter=0;" parent="1" source="wqAJ-05neOodzUHFtLEN-24" target="wqAJ-05neOodzUHFtLEN-28" edge="1">
          <mxGeometry width="50" height="50" relative="1" as="geometry">
            <mxPoint x="545" y="655" as="sourcePoint" />
            <mxPoint x="595.3576165455736" y="654.7145699273442" as="targetPoint" />
          </mxGeometry>
        </mxCell>
        <mxCell id="wqAJ-05neOodzUHFtLEN-34" value="LAG1" style="text;html=1;strokeColor=none;fillColor=none;align=center;verticalAlign=middle;whiteSpace=wrap;rounded=0;" parent="1" vertex="1">
          <mxGeometry x="535" y="655" width="60" height="30" as="geometry" />
        </mxCell>
        <mxCell id="wqAJ-05neOodzUHFtLEN-35" value="Host-1" style="rounded=1;whiteSpace=wrap;html=1;" parent="1" vertex="1">
          <mxGeometry x="325" y="615" width="40" height="30" as="geometry" />
        </mxCell>
        <mxCell id="wqAJ-05neOodzUHFtLEN-36" value="" style="endArrow=classic;html=1;rounded=0;" parent="1" source="wqAJ-05neOodzUHFtLEN-35" edge="1">
          <mxGeometry width="50" height="50" relative="1" as="geometry">
            <mxPoint x="375" y="720" as="sourcePoint" />
            <mxPoint x="425" y="670" as="targetPoint" />
          </mxGeometry>
        </mxCell>
        <mxCell id="wqAJ-05neOodzUHFtLEN-37" value="" style="ellipse;whiteSpace=wrap;html=1;" parent="1" vertex="1">
          <mxGeometry x="592.5" y="640" width="25" height="60" as="geometry" />
        </mxCell>
        <mxCell id="wqAJ-05neOodzUHFtLEN-38" value="Host-2" style="rounded=1;whiteSpace=wrap;html=1;" parent="1" vertex="1">
          <mxGeometry x="325" y="720" width="40" height="30" as="geometry" />
        </mxCell>
        <mxCell id="wqAJ-05neOodzUHFtLEN-39" value="" style="endArrow=classic;html=1;rounded=0;entryX=0;entryY=0.5;entryDx=0;entryDy=0;" parent="1" source="wqAJ-05neOodzUHFtLEN-38" target="wqAJ-05neOodzUHFtLEN-24" edge="1">
          <mxGeometry width="50" height="50" relative="1" as="geometry">
            <mxPoint x="375" y="825" as="sourcePoint" />
            <mxPoint x="425" y="775" as="targetPoint" />
          </mxGeometry>
        </mxCell>
        <mxCell id="wqAJ-05neOodzUHFtLEN-40" value="layer2+3" style="text;html=1;strokeColor=none;fillColor=none;align=center;verticalAlign=middle;whiteSpace=wrap;rounded=0;" parent="1" vertex="1">
          <mxGeometry x="475" y="610" width="60" height="30" as="geometry" />
        </mxCell>
        <mxCell id="wqAJ-05neOodzUHFtLEN-41" value="Per stream load balacing" style="text;html=1;strokeColor=none;fillColor=none;align=center;verticalAlign=middle;whiteSpace=wrap;rounded=0;" parent="1" vertex="1">
          <mxGeometry x="324" y="1600" width="140" height="30" as="geometry" />
        </mxCell>
        <mxCell id="wqAJ-05neOodzUHFtLEN-42" value="cat /proc/net/bonding/bond0" style="text;html=1;strokeColor=none;fillColor=none;align=center;verticalAlign=middle;whiteSpace=wrap;rounded=0;" parent="1" vertex="1">
          <mxGeometry x="-49" y="780" width="190" height="30" as="geometry" />
        </mxCell>
        <mxCell id="wqAJ-05neOodzUHFtLEN-44" value="ifstat" style="text;html=1;strokeColor=none;fillColor=none;align=center;verticalAlign=middle;whiteSpace=wrap;rounded=0;" parent="1" vertex="1">
          <mxGeometry x="80" y="830" width="60" height="30" as="geometry" />
        </mxCell>
        <mxCell id="q6s2j3DDuQdiJ-hi_PL6-1" value="eth1" style="rounded=0;whiteSpace=wrap;html=1;fillColor=#dae8fc;strokeColor=#6c8ebf;" parent="1" vertex="1">
          <mxGeometry x="620" y="229" width="50" height="20" as="geometry" />
        </mxCell>
        <mxCell id="q6s2j3DDuQdiJ-hi_PL6-2" value="eth2" style="rounded=0;whiteSpace=wrap;html=1;fillColor=#dae8fc;strokeColor=#6c8ebf;" parent="1" vertex="1">
          <mxGeometry x="620" y="281" width="50" height="20" as="geometry" />
        </mxCell>
        <mxCell id="q6s2j3DDuQdiJ-hi_PL6-3" value="" style="endArrow=none;html=1;rounded=0;entryX=0;entryY=0.75;entryDx=0;entryDy=0;exitX=1;exitY=0.75;exitDx=0;exitDy=0;" parent="1" source="wqAJ-05neOodzUHFtLEN-4" target="wqAJ-05neOodzUHFtLEN-5" edge="1">
          <mxGeometry width="50" height="50" relative="1" as="geometry">
            <mxPoint x="482.5" y="330" as="sourcePoint" />
            <mxPoint x="627.5" y="330" as="targetPoint" />
          </mxGeometry>
        </mxCell>
        <mxCell id="q6s2j3DDuQdiJ-hi_PL6-5" value="port1" style="rounded=0;whiteSpace=wrap;html=1;fillColor=#dae8fc;strokeColor=#6c8ebf;" parent="1" vertex="1">
          <mxGeometry x="450" y="229" width="42" height="20" as="geometry" />
        </mxCell>
        <mxCell id="q6s2j3DDuQdiJ-hi_PL6-6" value="port2" style="rounded=0;whiteSpace=wrap;html=1;fillColor=#dae8fc;strokeColor=#6c8ebf;" parent="1" vertex="1">
          <mxGeometry x="450" y="281" width="42" height="20" as="geometry" />
        </mxCell>
        <mxCell id="q6s2j3DDuQdiJ-hi_PL6-7" value="&lt;span style=&quot;white-space: pre;&quot;&gt;&#x9;&lt;/span&gt;&lt;span style=&quot;white-space: pre;&quot;&gt;&#x9;&lt;/span&gt;Deskvue" style="rounded=1;whiteSpace=wrap;html=1;fillColor=#dae8fc;strokeColor=#6c8ebf;" parent="1" vertex="1">
          <mxGeometry x="424" y="30" width="136" height="110" as="geometry" />
        </mxCell>
        <mxCell id="q6s2j3DDuQdiJ-hi_PL6-10" value="enp45s0" style="rounded=0;whiteSpace=wrap;html=1;fillColor=#dae8fc;strokeColor=#6c8ebf;" parent="1" vertex="1">
          <mxGeometry x="424" y="49" width="66" height="20" as="geometry" />
        </mxCell>
        <mxCell id="q6s2j3DDuQdiJ-hi_PL6-11" value="enp0s31f6" style="rounded=0;whiteSpace=wrap;html=1;fillColor=#dae8fc;strokeColor=#6c8ebf;" parent="1" vertex="1">
          <mxGeometry x="424" y="101" width="66" height="20" as="geometry" />
        </mxCell>
        <mxCell id="q6s2j3DDuQdiJ-hi_PL6-13" value="" style="edgeStyle=elbowEdgeStyle;elbow=horizontal;endArrow=classic;html=1;curved=0;rounded=0;endSize=8;startSize=8;exitX=0;exitY=0.5;exitDx=0;exitDy=0;" parent="1" source="q6s2j3DDuQdiJ-hi_PL6-10" edge="1">
          <mxGeometry width="50" height="50" relative="1" as="geometry">
            <mxPoint x="310" y="180" as="sourcePoint" />
            <mxPoint x="340" y="80" as="targetPoint" />
            <Array as="points">
              <mxPoint x="400" y="60" />
            </Array>
          </mxGeometry>
        </mxCell>
        <mxCell id="q6s2j3DDuQdiJ-hi_PL6-15" value="" style="edgeStyle=elbowEdgeStyle;elbow=horizontal;endArrow=classic;html=1;curved=0;rounded=0;endSize=8;startSize=8;" parent="1" edge="1">
          <mxGeometry width="50" height="50" relative="1" as="geometry">
            <mxPoint x="424" y="110" as="sourcePoint" />
            <mxPoint x="340" y="80" as="targetPoint" />
            <Array as="points">
              <mxPoint x="400" y="100" />
            </Array>
          </mxGeometry>
        </mxCell>
        <mxCell id="q6s2j3DDuQdiJ-hi_PL6-18" value="Bond0" style="text;html=1;strokeColor=none;fillColor=none;align=center;verticalAlign=middle;whiteSpace=wrap;rounded=0;" parent="1" vertex="1">
          <mxGeometry x="365" y="65" width="20" height="16" as="geometry" />
        </mxCell>
        <mxCell id="q6s2j3DDuQdiJ-hi_PL6-19" value="Switch" style="rounded=1;whiteSpace=wrap;html=1;fillColor=#e1d5e7;strokeColor=#9673a6;" parent="1" vertex="1">
          <mxGeometry x="-61" y="43.5" width="94" height="107.5" as="geometry" />
        </mxCell>
        <mxCell id="q6s2j3DDuQdiJ-hi_PL6-20" value="Deskvue" style="rounded=1;whiteSpace=wrap;html=1;fillColor=#dae8fc;strokeColor=#6c8ebf;" parent="1" vertex="1">
          <mxGeometry x="160" y="40" width="121" height="110" as="geometry" />
        </mxCell>
        <mxCell id="q6s2j3DDuQdiJ-hi_PL6-21" value="" style="endArrow=none;html=1;rounded=0;entryX=0;entryY=0.5;entryDx=0;entryDy=0;exitX=1;exitY=0.25;exitDx=0;exitDy=0;" parent="1" source="q6s2j3DDuQdiJ-hi_PL6-19" target="q6s2j3DDuQdiJ-hi_PL6-24" edge="1">
          <mxGeometry width="50" height="50" relative="1" as="geometry">
            <mxPoint x="-54" y="201" as="sourcePoint" />
            <mxPoint x="126" y="161" as="targetPoint" />
          </mxGeometry>
        </mxCell>
        <mxCell id="q6s2j3DDuQdiJ-hi_PL6-22" value="bond0" style="text;html=1;strokeColor=none;fillColor=none;align=center;verticalAlign=middle;whiteSpace=wrap;rounded=0;" parent="1" vertex="1">
          <mxGeometry x="112" y="80" width="60" height="30" as="geometry" />
        </mxCell>
        <mxCell id="q6s2j3DDuQdiJ-hi_PL6-23" value="802.3ad&lt;br&gt;Bonding mode" style="text;html=1;strokeColor=none;fillColor=none;align=center;verticalAlign=middle;whiteSpace=wrap;rounded=0;" parent="1" vertex="1">
          <mxGeometry x="41" width="110" height="30" as="geometry" />
        </mxCell>
        <mxCell id="q6s2j3DDuQdiJ-hi_PL6-24" value="eth1" style="rounded=0;whiteSpace=wrap;html=1;fillColor=#dae8fc;strokeColor=#6c8ebf;" parent="1" vertex="1">
          <mxGeometry x="161" y="60" width="50" height="20" as="geometry" />
        </mxCell>
        <mxCell id="q6s2j3DDuQdiJ-hi_PL6-25" value="eth2" style="rounded=0;whiteSpace=wrap;html=1;fillColor=#dae8fc;strokeColor=#6c8ebf;" parent="1" vertex="1">
          <mxGeometry x="161" y="112" width="50" height="20" as="geometry" />
        </mxCell>
        <mxCell id="q6s2j3DDuQdiJ-hi_PL6-26" value="" style="endArrow=none;html=1;rounded=0;entryX=0;entryY=0.75;entryDx=0;entryDy=0;exitX=1;exitY=0.75;exitDx=0;exitDy=0;" parent="1" edge="1">
          <mxGeometry width="50" height="50" relative="1" as="geometry">
            <mxPoint x="33" y="123.125" as="sourcePoint" />
            <mxPoint x="160" y="121.5" as="targetPoint" />
          </mxGeometry>
        </mxCell>
        <mxCell id="q6s2j3DDuQdiJ-hi_PL6-27" value="port1" style="rounded=0;whiteSpace=wrap;html=1;fillColor=#dae8fc;strokeColor=#6c8ebf;" parent="1" vertex="1">
          <mxGeometry x="-9" y="60" width="42" height="20" as="geometry" />
        </mxCell>
        <mxCell id="q6s2j3DDuQdiJ-hi_PL6-28" value="port2" style="rounded=0;whiteSpace=wrap;html=1;fillColor=#dae8fc;strokeColor=#6c8ebf;" parent="1" vertex="1">
          <mxGeometry x="-9" y="112" width="42" height="20" as="geometry" />
        </mxCell>
        <mxCell id="q6s2j3DDuQdiJ-hi_PL6-29" value="" style="endArrow=classic;html=1;rounded=0;exitX=0;exitY=0.5;exitDx=0;exitDy=0;" parent="1" source="q6s2j3DDuQdiJ-hi_PL6-24" edge="1">
          <mxGeometry width="50" height="50" relative="1" as="geometry">
            <mxPoint x="-76" y="-30" as="sourcePoint" />
            <mxPoint x="74" y="70" as="targetPoint" />
          </mxGeometry>
        </mxCell>
        <mxCell id="q6s2j3DDuQdiJ-hi_PL6-30" value="" style="endArrow=classic;html=1;rounded=0;exitX=0;exitY=0.5;exitDx=0;exitDy=0;" parent="1" source="q6s2j3DDuQdiJ-hi_PL6-25" edge="1">
          <mxGeometry width="50" height="50" relative="1" as="geometry">
            <mxPoint x="4" y="250" as="sourcePoint" />
            <mxPoint x="74" y="122" as="targetPoint" />
          </mxGeometry>
        </mxCell>
        <mxCell id="q6s2j3DDuQdiJ-hi_PL6-31" value="LACP PDUs" style="text;html=1;strokeColor=none;fillColor=none;align=center;verticalAlign=middle;whiteSpace=wrap;rounded=0;" parent="1" vertex="1">
          <mxGeometry x="41" y="43.5" width="100" height="30" as="geometry" />
        </mxCell>
        <mxCell id="q6s2j3DDuQdiJ-hi_PL6-32" value="LACP PDUs" style="text;html=1;strokeColor=none;fillColor=none;align=center;verticalAlign=middle;whiteSpace=wrap;rounded=0;" parent="1" vertex="1">
          <mxGeometry x="41" y="121" width="100" height="30" as="geometry" />
        </mxCell>
        <mxCell id="q6s2j3DDuQdiJ-hi_PL6-33" value="Switch" style="rounded=1;whiteSpace=wrap;html=1;fillColor=#e1d5e7;strokeColor=#9673a6;" parent="1" vertex="1">
          <mxGeometry x="289" y="893.5" width="94" height="107.5" as="geometry" />
        </mxCell>
        <mxCell id="q6s2j3DDuQdiJ-hi_PL6-34" value="Deskvue" style="rounded=1;whiteSpace=wrap;html=1;fillColor=#dae8fc;strokeColor=#6c8ebf;" parent="1" vertex="1">
          <mxGeometry x="510" y="890" width="121" height="110" as="geometry" />
        </mxCell>
        <mxCell id="q6s2j3DDuQdiJ-hi_PL6-35" value="" style="endArrow=none;html=1;rounded=0;entryX=0;entryY=0.5;entryDx=0;entryDy=0;exitX=1;exitY=0.25;exitDx=0;exitDy=0;" parent="1" source="q6s2j3DDuQdiJ-hi_PL6-33" target="q6s2j3DDuQdiJ-hi_PL6-38" edge="1">
          <mxGeometry width="50" height="50" relative="1" as="geometry">
            <mxPoint x="296" y="1051" as="sourcePoint" />
            <mxPoint x="476" y="1011" as="targetPoint" />
          </mxGeometry>
        </mxCell>
        <mxCell id="q6s2j3DDuQdiJ-hi_PL6-36" value="bond0" style="text;html=1;strokeColor=none;fillColor=none;align=center;verticalAlign=middle;whiteSpace=wrap;rounded=0;" parent="1" vertex="1">
          <mxGeometry x="462" y="930" width="60" height="30" as="geometry" />
        </mxCell>
        <mxCell id="q6s2j3DDuQdiJ-hi_PL6-37" value="802.3ad&lt;br&gt;Bonding mode" style="text;html=1;strokeColor=none;fillColor=none;align=center;verticalAlign=middle;whiteSpace=wrap;rounded=0;" parent="1" vertex="1">
          <mxGeometry x="394" y="860" width="110" height="30" as="geometry" />
        </mxCell>
        <mxCell id="q6s2j3DDuQdiJ-hi_PL6-38" value="eth1" style="rounded=0;whiteSpace=wrap;html=1;fillColor=#dae8fc;strokeColor=#6c8ebf;" parent="1" vertex="1">
          <mxGeometry x="511" y="910" width="50" height="20" as="geometry" />
        </mxCell>
        <mxCell id="q6s2j3DDuQdiJ-hi_PL6-39" value="eth2" style="rounded=0;whiteSpace=wrap;html=1;fillColor=#dae8fc;strokeColor=#6c8ebf;" parent="1" vertex="1">
          <mxGeometry x="511" y="962" width="50" height="20" as="geometry" />
        </mxCell>
        <mxCell id="q6s2j3DDuQdiJ-hi_PL6-40" value="" style="endArrow=none;html=1;rounded=0;entryX=0;entryY=0.75;entryDx=0;entryDy=0;exitX=1;exitY=0.75;exitDx=0;exitDy=0;" parent="1" edge="1">
          <mxGeometry width="50" height="50" relative="1" as="geometry">
            <mxPoint x="383" y="973.125" as="sourcePoint" />
            <mxPoint x="510" y="971.5" as="targetPoint" />
          </mxGeometry>
        </mxCell>
        <mxCell id="q6s2j3DDuQdiJ-hi_PL6-41" value="port1" style="rounded=0;whiteSpace=wrap;html=1;fillColor=#dae8fc;strokeColor=#6c8ebf;" parent="1" vertex="1">
          <mxGeometry x="341" y="910" width="42" height="20" as="geometry" />
        </mxCell>
        <mxCell id="q6s2j3DDuQdiJ-hi_PL6-42" value="port2" style="rounded=0;whiteSpace=wrap;html=1;fillColor=#dae8fc;strokeColor=#6c8ebf;" parent="1" vertex="1">
          <mxGeometry x="341" y="962" width="42" height="20" as="geometry" />
        </mxCell>
        <mxCell id="q6s2j3DDuQdiJ-hi_PL6-45" value="LAG1" style="text;html=1;strokeColor=none;fillColor=none;align=center;verticalAlign=middle;whiteSpace=wrap;rounded=0;" parent="1" vertex="1">
          <mxGeometry x="364" y="893.5" width="100" height="30" as="geometry" />
        </mxCell>
        <mxCell id="q6s2j3DDuQdiJ-hi_PL6-46" value="LAG2" style="text;html=1;strokeColor=none;fillColor=none;align=center;verticalAlign=middle;whiteSpace=wrap;rounded=0;" parent="1" vertex="1">
          <mxGeometry x="362" y="971" width="100" height="30" as="geometry" />
        </mxCell>
        <mxCell id="q6s2j3DDuQdiJ-hi_PL6-47" value="" style="ellipse;whiteSpace=wrap;html=1;" parent="1" vertex="1">
          <mxGeometry x="434.5" y="910" width="13" height="20" as="geometry" />
        </mxCell>
        <mxCell id="q6s2j3DDuQdiJ-hi_PL6-48" value="" style="ellipse;whiteSpace=wrap;html=1;" parent="1" vertex="1">
          <mxGeometry x="434.5" y="962" width="13" height="20" as="geometry" />
        </mxCell>
        <mxCell id="q6s2j3DDuQdiJ-hi_PL6-49" value="Switch" style="rounded=1;whiteSpace=wrap;html=1;fillColor=#e1d5e7;strokeColor=#9673a6;" parent="1" vertex="1">
          <mxGeometry x="281" y="1113.5" width="94" height="107.5" as="geometry" />
        </mxCell>
        <mxCell id="q6s2j3DDuQdiJ-hi_PL6-50" value="Deskvue" style="rounded=1;whiteSpace=wrap;html=1;fillColor=#dae8fc;strokeColor=#6c8ebf;" parent="1" vertex="1">
          <mxGeometry x="510" y="1182" width="121" height="110" as="geometry" />
        </mxCell>
        <mxCell id="q6s2j3DDuQdiJ-hi_PL6-51" value="" style="endArrow=none;html=1;rounded=0;entryX=0;entryY=0.5;entryDx=0;entryDy=0;exitX=1;exitY=0.25;exitDx=0;exitDy=0;" parent="1" source="q6s2j3DDuQdiJ-hi_PL6-49" target="q6s2j3DDuQdiJ-hi_PL6-54" edge="1">
          <mxGeometry width="50" height="50" relative="1" as="geometry">
            <mxPoint x="288" y="1271" as="sourcePoint" />
            <mxPoint x="468" y="1231" as="targetPoint" />
          </mxGeometry>
        </mxCell>
        <mxCell id="q6s2j3DDuQdiJ-hi_PL6-52" value="bond0" style="text;html=1;strokeColor=none;fillColor=none;align=center;verticalAlign=middle;whiteSpace=wrap;rounded=0;" parent="1" vertex="1">
          <mxGeometry x="459.5" y="1221" width="60" height="30" as="geometry" />
        </mxCell>
        <mxCell id="q6s2j3DDuQdiJ-hi_PL6-53" value="802.3ad&lt;br&gt;Bonding mode" style="text;html=1;strokeColor=none;fillColor=none;align=center;verticalAlign=middle;whiteSpace=wrap;rounded=0;" parent="1" vertex="1">
          <mxGeometry x="365" y="1219" width="110" height="30" as="geometry" />
        </mxCell>
        <mxCell id="q6s2j3DDuQdiJ-hi_PL6-54" value="eth1" style="rounded=0;whiteSpace=wrap;html=1;fillColor=#dae8fc;strokeColor=#6c8ebf;" parent="1" vertex="1">
          <mxGeometry x="511" y="1202" width="50" height="20" as="geometry" />
        </mxCell>
        <mxCell id="q6s2j3DDuQdiJ-hi_PL6-55" value="eth2" style="rounded=0;whiteSpace=wrap;html=1;fillColor=#dae8fc;strokeColor=#6c8ebf;" parent="1" vertex="1">
          <mxGeometry x="511" y="1250" width="50" height="20" as="geometry" />
        </mxCell>
        <mxCell id="q6s2j3DDuQdiJ-hi_PL6-56" value="" style="endArrow=none;html=1;rounded=0;entryX=0;entryY=0.75;entryDx=0;entryDy=0;exitX=0.996;exitY=0.694;exitDx=0;exitDy=0;exitPerimeter=0;" parent="1" source="q6s2j3DDuQdiJ-hi_PL6-64" target="q6s2j3DDuQdiJ-hi_PL6-50" edge="1">
          <mxGeometry width="50" height="50" relative="1" as="geometry">
            <mxPoint x="375" y="1193.125" as="sourcePoint" />
            <mxPoint x="502" y="1191.5" as="targetPoint" />
          </mxGeometry>
        </mxCell>
        <mxCell id="q6s2j3DDuQdiJ-hi_PL6-57" value="port1" style="rounded=0;whiteSpace=wrap;html=1;fillColor=#dae8fc;strokeColor=#6c8ebf;" parent="1" vertex="1">
          <mxGeometry x="333" y="1130" width="42" height="20" as="geometry" />
        </mxCell>
        <mxCell id="q6s2j3DDuQdiJ-hi_PL6-59" value="LAG1" style="text;html=1;strokeColor=none;fillColor=none;align=center;verticalAlign=middle;whiteSpace=wrap;rounded=0;rotation=30;" parent="1" vertex="1">
          <mxGeometry x="356" y="1130.5" width="100" height="30" as="geometry" />
        </mxCell>
        <mxCell id="q6s2j3DDuQdiJ-hi_PL6-60" value="LAG2" style="text;html=1;strokeColor=none;fillColor=none;align=center;verticalAlign=middle;whiteSpace=wrap;rounded=0;rotation=-25;" parent="1" vertex="1">
          <mxGeometry x="347" y="1291" width="100" height="30" as="geometry" />
        </mxCell>
        <mxCell id="q6s2j3DDuQdiJ-hi_PL6-61" value="" style="ellipse;whiteSpace=wrap;html=1;rotation=15;" parent="1" vertex="1">
          <mxGeometry x="426.5" y="1161" width="13" height="20" as="geometry" />
        </mxCell>
        <mxCell id="q6s2j3DDuQdiJ-hi_PL6-62" value="" style="ellipse;whiteSpace=wrap;html=1;rotation=-15;" parent="1" vertex="1">
          <mxGeometry x="426.5" y="1288" width="13" height="20" as="geometry" />
        </mxCell>
        <mxCell id="q6s2j3DDuQdiJ-hi_PL6-64" value="Switch" style="rounded=1;whiteSpace=wrap;html=1;fillColor=#e1d5e7;strokeColor=#9673a6;" parent="1" vertex="1">
          <mxGeometry x="281" y="1250" width="94" height="107.5" as="geometry" />
        </mxCell>
        <mxCell id="q6s2j3DDuQdiJ-hi_PL6-65" value="port1" style="rounded=0;whiteSpace=wrap;html=1;fillColor=#dae8fc;strokeColor=#6c8ebf;" parent="1" vertex="1">
          <mxGeometry x="333" y="1320" width="42" height="20" as="geometry" />
        </mxCell>
        <mxCell id="q6s2j3DDuQdiJ-hi_PL6-73" value="bond0" style="text;html=1;strokeColor=none;fillColor=none;align=center;verticalAlign=middle;whiteSpace=wrap;rounded=0;" parent="1" vertex="1">
          <mxGeometry x="472" y="940" width="60" height="30" as="geometry" />
        </mxCell>
        <mxCell id="q6s2j3DDuQdiJ-hi_PL6-84" value="Switch" style="rounded=1;whiteSpace=wrap;html=1;fillColor=#e1d5e7;strokeColor=#9673a6;" parent="1" vertex="1">
          <mxGeometry x="268" y="1473.5" width="94" height="107.5" as="geometry" />
        </mxCell>
        <mxCell id="q6s2j3DDuQdiJ-hi_PL6-85" value="Deskvue" style="rounded=1;whiteSpace=wrap;html=1;fillColor=#dae8fc;strokeColor=#6c8ebf;" parent="1" vertex="1">
          <mxGeometry x="489" y="1470" width="121" height="110" as="geometry" />
        </mxCell>
        <mxCell id="q6s2j3DDuQdiJ-hi_PL6-86" value="" style="endArrow=none;html=1;rounded=0;entryX=0;entryY=0.5;entryDx=0;entryDy=0;exitX=1;exitY=0.25;exitDx=0;exitDy=0;" parent="1" source="q6s2j3DDuQdiJ-hi_PL6-84" target="q6s2j3DDuQdiJ-hi_PL6-89" edge="1">
          <mxGeometry width="50" height="50" relative="1" as="geometry">
            <mxPoint x="275" y="1631" as="sourcePoint" />
            <mxPoint x="455" y="1591" as="targetPoint" />
          </mxGeometry>
        </mxCell>
        <mxCell id="q6s2j3DDuQdiJ-hi_PL6-87" value="bond0" style="text;html=1;strokeColor=none;fillColor=none;align=center;verticalAlign=middle;whiteSpace=wrap;rounded=0;" parent="1" vertex="1">
          <mxGeometry x="441" y="1510" width="60" height="30" as="geometry" />
        </mxCell>
        <mxCell id="q6s2j3DDuQdiJ-hi_PL6-88" value="802.3ad&lt;br&gt;Bonding mode" style="text;html=1;strokeColor=none;fillColor=none;align=center;verticalAlign=middle;whiteSpace=wrap;rounded=0;" parent="1" vertex="1">
          <mxGeometry x="373" y="1434" width="110" height="30" as="geometry" />
        </mxCell>
        <mxCell id="q6s2j3DDuQdiJ-hi_PL6-89" value="eth1" style="rounded=0;whiteSpace=wrap;html=1;fillColor=#dae8fc;strokeColor=#6c8ebf;" parent="1" vertex="1">
          <mxGeometry x="490" y="1490" width="50" height="20" as="geometry" />
        </mxCell>
        <mxCell id="q6s2j3DDuQdiJ-hi_PL6-90" value="eth2" style="rounded=0;whiteSpace=wrap;html=1;fillColor=#dae8fc;strokeColor=#6c8ebf;" parent="1" vertex="1">
          <mxGeometry x="490" y="1542" width="50" height="20" as="geometry" />
        </mxCell>
        <mxCell id="q6s2j3DDuQdiJ-hi_PL6-91" value="" style="endArrow=none;html=1;rounded=0;entryX=0;entryY=0.75;entryDx=0;entryDy=0;exitX=1;exitY=0.75;exitDx=0;exitDy=0;" parent="1" edge="1">
          <mxGeometry width="50" height="50" relative="1" as="geometry">
            <mxPoint x="362" y="1553.125" as="sourcePoint" />
            <mxPoint x="489" y="1551.5" as="targetPoint" />
          </mxGeometry>
        </mxCell>
        <mxCell id="q6s2j3DDuQdiJ-hi_PL6-92" value="port1" style="rounded=0;whiteSpace=wrap;html=1;fillColor=#dae8fc;strokeColor=#6c8ebf;" parent="1" vertex="1">
          <mxGeometry x="320" y="1490" width="42" height="20" as="geometry" />
        </mxCell>
        <mxCell id="q6s2j3DDuQdiJ-hi_PL6-93" value="port2" style="rounded=0;whiteSpace=wrap;html=1;fillColor=#dae8fc;strokeColor=#6c8ebf;" parent="1" vertex="1">
          <mxGeometry x="320" y="1542" width="42" height="20" as="geometry" />
        </mxCell>
        <mxCell id="q6s2j3DDuQdiJ-hi_PL6-95" value="LAG1" style="text;html=1;strokeColor=none;fillColor=none;align=center;verticalAlign=middle;whiteSpace=wrap;rounded=0;" parent="1" vertex="1">
          <mxGeometry x="340" y="1510" width="100" height="30" as="geometry" />
        </mxCell>
        <mxCell id="q6s2j3DDuQdiJ-hi_PL6-96" value="" style="ellipse;whiteSpace=wrap;html=1;" parent="1" vertex="1">
          <mxGeometry x="413.5" y="1480" width="13" height="90" as="geometry" />
        </mxCell>
        <mxCell id="q6s2j3DDuQdiJ-hi_PL6-100" value="layer2+3" style="text;html=1;strokeColor=none;fillColor=none;align=center;verticalAlign=middle;whiteSpace=wrap;rounded=0;" parent="1" vertex="1">
          <mxGeometry x="296" y="1435.5" width="60" height="30" as="geometry" />
        </mxCell>
        <mxCell id="q6s2j3DDuQdiJ-hi_PL6-101" value="Host 1" style="rounded=1;whiteSpace=wrap;html=1;fillColor=#a20025;strokeColor=#6F0000;fontColor=#ffffff;" parent="1" vertex="1">
          <mxGeometry x="172" y="1487" width="50" height="26" as="geometry" />
        </mxCell>
        <mxCell id="q6s2j3DDuQdiJ-hi_PL6-102" value="Host 2" style="rounded=1;whiteSpace=wrap;html=1;fillColor=#6a00ff;strokeColor=#3700CC;fontColor=#ffffff;" parent="1" vertex="1">
          <mxGeometry x="172" y="1542" width="50" height="26" as="geometry" />
        </mxCell>
        <mxCell id="q6s2j3DDuQdiJ-hi_PL6-104" value="" style="endArrow=classic;html=1;rounded=0;entryX=0;entryY=0.25;entryDx=0;entryDy=0;exitX=1;exitY=0.5;exitDx=0;exitDy=0;" parent="1" source="q6s2j3DDuQdiJ-hi_PL6-101" target="q6s2j3DDuQdiJ-hi_PL6-84" edge="1">
          <mxGeometry width="50" height="50" relative="1" as="geometry">
            <mxPoint x="172" y="1700" as="sourcePoint" />
            <mxPoint x="222" y="1650" as="targetPoint" />
          </mxGeometry>
        </mxCell>
        <mxCell id="q6s2j3DDuQdiJ-hi_PL6-105" value="" style="endArrow=classic;html=1;rounded=0;exitX=1;exitY=0.5;exitDx=0;exitDy=0;entryX=0;entryY=0.75;entryDx=0;entryDy=0;" parent="1" source="q6s2j3DDuQdiJ-hi_PL6-102" target="q6s2j3DDuQdiJ-hi_PL6-84" edge="1">
          <mxGeometry width="50" height="50" relative="1" as="geometry">
            <mxPoint x="150" y="1750" as="sourcePoint" />
            <mxPoint x="200" y="1700" as="targetPoint" />
          </mxGeometry>
        </mxCell>
        <mxCell id="q6s2j3DDuQdiJ-hi_PL6-106" value="" style="shape=partialRectangle;whiteSpace=wrap;html=1;bottom=1;right=1;left=1;top=0;fillColor=none;routingCenterX=-0.5;rotation=-180;dashed=1;fontColor=#ffffff;strokeColor=#6F0000;strokeWidth=2;" parent="1" vertex="1">
          <mxGeometry x="261.5" y="1470" width="202" height="20" as="geometry" />
        </mxCell>
        <mxCell id="q6s2j3DDuQdiJ-hi_PL6-107" value="" style="shape=partialRectangle;whiteSpace=wrap;html=1;bottom=1;right=1;left=1;top=0;fillColor=none;routingCenterX=-0.5;rotation=0;fontColor=#ffffff;strokeColor=#001DBC;dashed=1;strokeWidth=2;" parent="1" vertex="1">
          <mxGeometry x="259" y="1565" width="200" height="20" as="geometry" />
        </mxCell>
        <mxCell id="q6s2j3DDuQdiJ-hi_PL6-108" value="" style="line;strokeWidth=2;html=1;fillColor=#a20025;fontColor=#ffffff;strokeColor=#6F0000;dashed=1;" parent="1" vertex="1">
          <mxGeometry x="463.5" y="1487" width="21" height="10" as="geometry" />
        </mxCell>
        <mxCell id="q6s2j3DDuQdiJ-hi_PL6-109" value="" style="line;strokeWidth=2;html=1;fillColor=none;fontColor=#ffffff;strokeColor=#6F0000;dashed=1;" parent="1" vertex="1">
          <mxGeometry x="240.5" y="1487" width="21" height="10" as="geometry" />
        </mxCell>
        <mxCell id="q6s2j3DDuQdiJ-hi_PL6-110" value="" style="line;strokeWidth=2;html=1;fillColor=none;fontColor=#ffffff;strokeColor=#001DBC;dashed=1;" parent="1" vertex="1">
          <mxGeometry x="459.5" y="1560" width="21" height="10" as="geometry" />
        </mxCell>
        <mxCell id="q6s2j3DDuQdiJ-hi_PL6-111" value="" style="line;strokeWidth=2;html=1;fillColor=none;fontColor=#ffffff;strokeColor=#001DBC;dashed=1;" parent="1" vertex="1">
          <mxGeometry x="239" y="1560" width="21" height="10" as="geometry" />
        </mxCell>
      </root>
    </mxGraphModel>
  </diagram>
</mxfile>
